<svg width="151" height="220" viewBox="0 0 151 220" fill="none" xmlns="http://www.w3.org/2000/svg">
<mask id="mask0_1_31" style="mask-type:alpha" maskUnits="userSpaceOnUse" x="0" y="0" width="151" height="220">
<rect y="7" width="151" height="6" fill="#161614"/>
<rect x="148" y="13" width="3" height="205" fill="#161614"/>
<rect y="13" width="3" height="205" fill="#161614"/>
<rect y="198" width="151" height="22" fill="#161614"/>
<path d="M75 0H151V13H87L75 0Z" fill="#E91C2D"/>
<path d="M148 13H151V68L148 62V13Z" fill="#E91C2D"/>
</mask>
<g mask="url(#mask0_1_31)">
<rect y="7" width="151" height="6" fill="#161614"/>
<rect x="148" y="13" width="3" height="207" fill="#161614"/>
<rect y="7" width="3" height="213" fill="#161614"/>
<rect y="198" width="151" height="22" fill="#161614"/>
<path d="M75 0H151V13H87L75 0Z" fill="#E91C2D"/>
<path d="M148 0H151V68L148 60.5818V0Z" fill="#E91C2D"/>
<line x1="55.2092" y1="-3.86319" x2="21.2092" y2="48.1368" stroke="white" stroke-width="0.5"/>
<line x1="62.2092" y1="-3.86319" x2="28.2092" y2="48.1368" stroke="white" stroke-width="0.5"/>
<line x1="69.2092" y1="-3.86319" x2="35.2092" y2="48.1368" stroke="white" stroke-width="0.5"/>
<line x1="76.2092" y1="-3.86319" x2="42.2092" y2="48.1368" stroke="white" stroke-width="0.5"/>
<line x1="78.2073" y1="5.13979" x2="49.2073" y2="48.1398" stroke="white" stroke-width="0.5"/>
<line x1="82.2096" y1="8.13625" x2="56.2096" y2="48.1362" stroke="white" stroke-width="0.5"/>
<line x1="86.2092" y1="183.137" x2="52.2092" y2="235.137" stroke="white" stroke-width="0.5"/>
<line x1="93.2092" y1="183.137" x2="59.2092" y2="235.137" stroke="white" stroke-width="0.5"/>
<line x1="100.209" y1="183.137" x2="66.2092" y2="235.137" stroke="white" stroke-width="0.5"/>
<line x1="107.209" y1="183.137" x2="73.2092" y2="235.137" stroke="white" stroke-width="0.5"/>
<line x1="114.209" y1="183.137" x2="80.2092" y2="235.137" stroke="white" stroke-width="0.5"/>
<line x1="121.209" y1="183.137" x2="87.2092" y2="235.137" stroke="white" stroke-width="0.5"/>
<path d="M92.03 10.12C91.7167 10.12 91.4367 10.09 91.19 10.03C90.95 9.97667 90.7333 9.9 90.54 9.8C90.3467 9.69333 90.1733 9.57 90.02 9.43C89.8733 9.28333 89.7367 9.12667 89.61 8.96L89.89 8.74C90.1367 9.06667 90.42 9.32667 90.74 9.52C91.0667 9.70667 91.4967 9.8 92.03 9.8C92.6367 9.8 93.1067 9.66333 93.44 9.39C93.7733 9.11667 93.94 8.72 93.94 8.2C93.94 7.94 93.9 7.72 93.82 7.54C93.74 7.36 93.63 7.21 93.49 7.09C93.35 6.97 93.1833 6.87667 92.99 6.81C92.8033 6.74333 92.6 6.69333 92.38 6.66L91.58 6.53C91.2267 6.47 90.9333 6.38 90.7 6.26C90.4733 6.14 90.2933 6 90.16 5.84C90.0267 5.68 89.93 5.50333 89.87 5.31C89.8167 5.11 89.79 4.90667 89.79 4.7C89.79 4.09333 89.99 3.64333 90.39 3.35C90.79 3.05 91.3267 2.9 92 2.9C92.5667 2.9 93.0233 2.99 93.37 3.17C93.7233 3.35 94.0033 3.59 94.21 3.89L93.94 4.12C93.7333 3.82667 93.4767 3.60333 93.17 3.45C92.8633 3.29667 92.4667 3.22 91.98 3.22C91.4067 3.22 90.96 3.34333 90.64 3.59C90.32 3.83 90.16 4.19667 90.16 4.69C90.16 4.93667 90.1967 5.14667 90.27 5.32C90.35 5.49333 90.4567 5.64 90.59 5.76C90.73 5.87333 90.8933 5.96667 91.08 6.04C91.2667 6.10667 91.4733 6.15667 91.7 6.19L92.49 6.32C92.85 6.38 93.1467 6.47333 93.38 6.6C93.6133 6.72 93.8 6.86333 93.94 7.03C94.08 7.19667 94.1767 7.38 94.23 7.58C94.2833 7.78 94.31 7.98333 94.31 8.19C94.31 8.82333 94.1067 9.30333 93.7 9.63C93.2933 9.95667 92.7367 10.12 92.03 10.12ZM94.8961 3.02V7.26C94.8961 7.73333 94.9194 8.13333 94.9661 8.46C95.0128 8.78 95.0994 9.04 95.2261 9.24C95.3528 9.43333 95.5261 9.57333 95.7461 9.66C95.9661 9.74667 96.2494 9.79 96.5961 9.79C96.9428 9.79 97.2261 9.74667 97.4461 9.66C97.6661 9.57333 97.8394 9.43333 97.9661 9.24C98.0928 9.04 98.1794 8.78 98.2261 8.46C98.2728 8.13333 98.2961 7.73333 98.2961 7.26V3.02H98.6561V7.21C98.6561 7.75 98.6228 8.20667 98.5561 8.58C98.4961 8.94667 98.3861 9.24667 98.2261 9.48C98.0728 9.70667 97.8628 9.87 97.5961 9.97C97.3361 10.07 97.0028 10.12 96.5961 10.12C96.1894 10.12 95.8528 10.07 95.5861 9.97C95.3261 9.87 95.1161 9.70667 94.9561 9.48C94.8028 9.24667 94.6928 8.94667 94.6261 8.58C94.5661 8.20667 94.5361 7.75 94.5361 7.21V3.02H94.8961ZM99.2322 10V3.02H101.692C102.286 3.02 102.732 3.19333 103.032 3.54C103.339 3.88 103.492 4.34333 103.492 4.93C103.492 5.51667 103.339 5.98333 103.032 6.33C102.732 6.67667 102.286 6.85 101.692 6.85H99.5922V10H99.2322ZM99.5922 6.52H101.692C101.932 6.52 102.139 6.48333 102.312 6.41C102.492 6.33667 102.639 6.24 102.752 6.12C102.872 5.99333 102.959 5.84667 103.012 5.68C103.072 5.51333 103.102 5.33667 103.102 5.15V4.71C103.102 4.53 103.072 4.35667 103.012 4.19C102.959 4.02333 102.872 3.88 102.752 3.76C102.639 3.63333 102.492 3.53333 102.312 3.46C102.139 3.38667 101.932 3.35 101.692 3.35H99.5922V6.52ZM103.828 10V3.02H107.938V3.35H104.188V6.29H107.808V6.62H104.188V9.67H107.938V10H103.828ZM108.784 10H108.424V3.02H110.884C111.478 3.02 111.924 3.19333 112.224 3.54C112.531 3.88 112.684 4.34333 112.684 4.93C112.684 5.50333 112.538 5.96 112.244 6.3C111.951 6.64 111.521 6.81667 110.954 6.83H110.664L112.664 10H112.244L110.264 6.84H108.784V10ZM110.884 6.52C111.124 6.52 111.331 6.48333 111.504 6.41C111.684 6.33667 111.831 6.24 111.944 6.12C112.064 5.99333 112.151 5.84667 112.204 5.68C112.264 5.51333 112.294 5.33667 112.294 5.15V4.71C112.294 4.53 112.264 4.35667 112.204 4.19C112.151 4.02333 112.064 3.88 111.944 3.76C111.831 3.63333 111.684 3.53333 111.504 3.46C111.331 3.38667 111.124 3.35 110.884 3.35H108.784V6.52H110.884ZM121.277 6.62H117.877V10H117.517V3.02H117.877V6.3H121.277V3.02H121.637V10H121.277V6.62ZM122.213 10V3.02H126.323V3.35H122.573V6.29H126.193V6.62H122.573V9.67H126.323V10H122.213ZM127.169 10H126.809V3.02H129.269C129.862 3.02 130.309 3.19333 130.609 3.54C130.915 3.88 131.069 4.34333 131.069 4.93C131.069 5.50333 130.922 5.96 130.629 6.3C130.335 6.64 129.905 6.81667 129.339 6.83H129.049L131.049 10H130.629L128.649 6.84H127.169V10ZM129.269 6.52C129.509 6.52 129.715 6.48333 129.889 6.41C130.069 6.33667 130.215 6.24 130.329 6.12C130.449 5.99333 130.535 5.84667 130.589 5.68C130.649 5.51333 130.679 5.33667 130.679 5.15V4.71C130.679 4.53 130.649 4.35667 130.589 4.19C130.535 4.02333 130.449 3.88 130.329 3.76C130.215 3.63333 130.069 3.53333 129.889 3.46C129.715 3.38667 129.509 3.35 129.269 3.35H127.169V6.52H129.269ZM133.365 10.12C132.605 10.12 132.025 9.83 131.625 9.25C131.232 8.67 131.035 7.75667 131.035 6.51C131.035 5.26333 131.232 4.35 131.625 3.77C132.025 3.19 132.605 2.9 133.365 2.9C134.125 2.9 134.702 3.19 135.095 3.77C135.495 4.35 135.695 5.26333 135.695 6.51C135.695 7.75667 135.495 8.67 135.095 9.25C134.702 9.83 134.125 10.12 133.365 10.12ZM133.365 9.79C134.012 9.79 134.495 9.54667 134.815 9.06C135.135 8.56667 135.295 7.84333 135.295 6.89V6.13C135.295 5.17667 135.135 4.45667 134.815 3.97C134.495 3.47667 134.012 3.23 133.365 3.23C132.718 3.23 132.235 3.47667 131.915 3.97C131.595 4.45667 131.435 5.17667 131.435 6.13V6.89C131.435 7.84333 131.595 8.56667 131.915 9.06C132.235 9.54667 132.718 9.79 133.365 9.79ZM136.001 10V3.02H140.111V3.35H136.361V6.29H139.981V6.62H136.361V9.67H140.111V10H136.001ZM142.587 10.12C142.274 10.12 141.994 10.09 141.747 10.03C141.507 9.97667 141.29 9.9 141.097 9.8C140.904 9.69333 140.73 9.57 140.577 9.43C140.43 9.28333 140.294 9.12667 140.167 8.96L140.447 8.74C140.694 9.06667 140.977 9.32667 141.297 9.52C141.624 9.70667 142.054 9.8 142.587 9.8C143.194 9.8 143.664 9.66333 143.997 9.39C144.33 9.11667 144.497 8.72 144.497 8.2C144.497 7.94 144.457 7.72 144.377 7.54C144.297 7.36 144.187 7.21 144.047 7.09C143.907 6.97 143.74 6.87667 143.547 6.81C143.36 6.74333 143.157 6.69333 142.937 6.66L142.137 6.53C141.784 6.47 141.49 6.38 141.257 6.26C141.03 6.14 140.85 6 140.717 5.84C140.584 5.68 140.487 5.50333 140.427 5.31C140.374 5.11 140.347 4.90667 140.347 4.7C140.347 4.09333 140.547 3.64333 140.947 3.35C141.347 3.05 141.884 2.9 142.557 2.9C143.124 2.9 143.58 2.99 143.927 3.17C144.28 3.35 144.56 3.59 144.767 3.89L144.497 4.12C144.29 3.82667 144.034 3.60333 143.727 3.45C143.42 3.29667 143.024 3.22 142.537 3.22C141.964 3.22 141.517 3.34333 141.197 3.59C140.877 3.83 140.717 4.19667 140.717 4.69C140.717 4.93667 140.754 5.14667 140.827 5.32C140.907 5.49333 141.014 5.64 141.147 5.76C141.287 5.87333 141.45 5.96667 141.637 6.04C141.824 6.10667 142.03 6.15667 142.257 6.19L143.047 6.32C143.407 6.38 143.704 6.47333 143.937 6.6C144.17 6.72 144.357 6.86333 144.497 7.03C144.637 7.19667 144.734 7.38 144.787 7.58C144.84 7.78 144.867 7.98333 144.867 8.19C144.867 8.82333 144.664 9.30333 144.257 9.63C143.85 9.95667 143.294 10.12 142.587 10.12Z" fill="white"/>
</g>
</svg>
