<svg width="25" height="25" viewBox="0 0 25 25" fill="none" xmlns="http://www.w3.org/2000/svg">
<path fill-rule="evenodd" clip-rule="evenodd" d="M8.0453 8.0453C10.1057 5.9849 13.4463 5.9849 15.5067 8.0453C17.5445 10.0831 17.5668 13.3731 15.5738 15.4383C15.5494 15.4585 15.5257 15.48 15.5029 15.5029C15.48 15.5257 15.4585 15.5494 15.4383 15.5738C13.3731 17.5668 10.0831 17.5445 8.0453 15.5067C5.9849 13.4463 5.9849 10.1057 8.0453 8.0453ZM16.1656 17.5798C13.3142 19.7421 9.23265 19.5225 6.63109 16.9209C3.78964 14.0794 3.78964 9.47255 6.63109 6.63109C9.47255 3.78964 14.0794 3.78964 16.9209 6.63109C19.5225 9.23265 19.7421 13.3142 17.5798 16.1656L20.2071 18.7929C20.5976 19.1834 20.5976 19.8166 20.2071 20.2071C19.8166 20.5976 19.1834 20.5976 18.7929 20.2071L16.1656 17.5798Z" fill="#9D9D9D"/>
</svg>
