<svg width="100" height="40" viewBox="0 0 100 40" fill="none" xmlns="http://www.w3.org/2000/svg">
<g clip-path="url(#clip0_1_21)">
<path d="M0 0H100V40H0V0Z" fill="#F0141E"/>
<path d="M84.624 9.32382V3.19822H67.4828L64.6608 23.6546L61.8728 3.19822H55.6912L56.382 8.66062C55.6694 7.26062 53.1398 3.19822 47.5698 3.19822C47.5328 3.19582 41.3808 3.19822 41.3808 3.19822L41.3552 33.015L36.8506 3.19822L28.7538 3.19582L24.093 34.0892L24.0956 3.19822H16.3452L13.5522 20.5518L10.8314 3.19822H3.07983V36.7846H9.18443V20.5958L11.9616 36.7846H15.2064L17.9444 20.5958V36.7846H29.712L30.4236 31.6186H35.1612L35.8728 36.7846L47.427 36.792H47.4354V36.7846H47.4498V25.8838L48.8646 25.679L51.7968 36.792H57.7734L57.771 36.7846H57.788L53.9404 23.7626C55.8886 22.3268 58.0908 18.6868 57.5048 15.203V15.2018C57.512 15.247 61.1376 36.807 61.1376 36.807L68.2444 36.785L73.1002 6.34442V36.785H84.6236V30.7452H79.1548V23.0438H84.6236V16.9118H79.1548V9.32382H84.624ZM31.1426 26.294L32.82 11.9336L34.558 26.294H31.1426ZM48.8842 19.663C48.4154 19.8876 47.9274 20 47.4498 20.0012V9.19922C47.4572 9.19922 47.4684 9.19802 47.4804 9.19802C47.9564 9.19442 51.521 9.34082 51.521 14.5398C51.521 17.2594 50.309 18.9746 48.8842 19.663ZM96.9214 30.7396V36.7772H85.6786V3.19342H91.733V30.7396H96.9214Z" fill="white"/>
</g>
<defs>
<clipPath id="clip0_1_21">
<rect width="100" height="40" fill="white"/>
</clipPath>
</defs>
</svg>
