<svg width="121" height="50" viewBox="0 0 121 50" fill="none" xmlns="http://www.w3.org/2000/svg">
<g clip-path="url(#clip0_1_6)">
<path d="M121 0H0V50H121V0Z" fill="#ED1D24"/>
<path d="M102.397 11.652V3.99891H81.6549L78.2438 29.5662L74.8684 3.99903H67.3885L68.2264 10.8212C67.3625 9.07354 64.3001 3.99903 57.5608 3.99903C57.5164 3.99605 50.0707 3.99903 50.0707 3.99903L50.0421 41.2654L44.5902 3.99903L34.7941 3.99319L29.1541 42.6062L29.157 3.99879H19.7815L16.4017 25.6878L13.1095 3.99903H3.73102V45.9777H11.1164V25.7441L14.4758 45.9773H18.4021L21.7144 25.7441V45.9773H35.9521L36.816 39.5178H42.5483L43.4093 45.9773L57.3874 45.9861H57.3987V45.9773H57.4075H57.4162V32.3509L59.1298 32.0946L62.6774 45.9861H62.6861H69.8989H69.9074L69.9045 45.9773H69.9173H69.926L65.2705 29.6958C67.6298 27.9041 70.2936 23.3541 69.5847 19.0014V18.9985C69.5931 19.0574 73.9789 46.0041 73.9789 46.0041L82.5778 45.9773L88.4534 7.927V45.9774H102.397V38.4274H95.7783V28.7999H102.397V21.1351H95.7783V11.652H102.397ZM37.686 32.861L39.7138 14.9143L41.8192 32.861H37.686ZM59.1537 24.5742C58.5854 24.8572 57.9927 24.9987 57.4158 24.9987V11.4958C57.4259 11.4958 57.4375 11.4931 57.4518 11.4931C58.0301 11.4901 62.3424 11.6727 62.3424 18.1735C62.3424 21.5741 60.8758 23.7168 59.1537 24.5742ZM117.277 38.4216V45.9714H103.675V3.99319H110.999V38.4216H117.277Z" fill="white"/>
</g>
<defs>
<clipPath id="clip0_1_6">
<rect width="121" height="50" fill="white"/>
</clipPath>
</defs>
</svg>
