<svg xmlns="http://www.w3.org/2000/svg" viewBox="0 0 40 40"><path d="M34.44 27.12h-30V13.54h30Z"/><path fill="#fff" d="M30.34 15.47H32v8h1.43v2h-3.09zm-11.57 4.75c1.21-.08 1.1-1.57 1.1-1.57-.18-1.46-1.1-1.39-1.1-1.39zm-3.87 2.3-.51-3-.43 3zM5.67 25.4v-9.93h2.26l.81 4.16.91-4.16h2.19v8.94l1.42-8.94h2.23l1.39 8.94v-8.9h2.95a2.26 2.26 0 0 1 1.53 1.6l-.21-1.64h1.78l.84 5.15.88-5.11h5v1.86h-1.5v2h1.42v2.08h-1.34v1.9h1.46v2h-3.25v-9.51l-1.68 9.56h-2l-1.06-6.35a4.36 4.36 0 0 1-1.16 2.55l1.27 3.8h-1.76l-1.24-3.32v3.32h-3.54l-.18-.95h-1.35l-.3.95h-3.35v-3.65l-.88 3.65H8.3l-.8-3.61v3.57z"/></svg>